v -35.69709396 19.08672142 11.97259045
v -28.63812256 17.64925385 10.10269737
v -31.44887352 21.89747238 7.41513109
v -29.93182373 10.89445877 8.09708214
v -25.83606529 13.41417694 4.29636574
v -24.38404083 10.7336731 0.29508376
v -27.40493393 3.73954773 -3.25894403
v -22.24705124 7.32315254 -7.23060608
v -37.14797974 12.36385345 10.20714092
v -33.52510071 15.25771332 16.92946243
v -34.14575958 8.6217308 5.25821018
v -31.71932411 1.56432343 -3.66954565
v -26.59573174 1.08415985 -7.8798995
v -39.93217087 16.28466415 7.29444265
v -43.06989288 10.3870945 -2.37791967
v -38.15464401 6.85872269 -1.97436583
v -32.62910461 -2.7779808 -8.57130146
v -28.90427399 -5.91470718 -8.73849583
v -46.24184418 12.21298504 -5.76323032
v -43.37527084 14.81878662 -0.44253486
v -39.90425491 5.90463638 -7.75130701
v -35.44266129 2.05625916 -5.30324411
v -35.98197556 -0.92654037 -8.32082748
v -24.80693054 20.92768288 1.86055887
v -27.20065498 24.70822525 1.67077696
v -22.96557808 27.51028061 0.96313596
v -20.44573593 23.41455078 -2.18871951
v -19.24661636 29.70542526 -1.08649004
v -14.13969994 28.82815361 -7.60594702
v -13.94026184 32.40656662 -7.13225508
v -21.91532516 16.19841957 -1.26946533
v -15.58707047 21.91669083 -4.36320496
v -15.49654675 25.37491798 -5.06420517
v -10.75886536 25.01935577 -7.98809242
v -17.03974724 15.8867569 -3.49470472
v -18.19322205 19.19813156 -3.05236435
v -13.25294495 18.88832664 -5.21965551
v -11.47220612 22.39683533 -8.30463123
v -19.52880478 11.67943096 -4.61705589
v -14.31925583 11.658535 -6.99152613
v -10.68587685 16.9421196 -8.32374477
v -30.03296089 28.8506012 7.81322622
v -34.2596283 26.14569283 2.14919376
v -37.06168365 30.38076973 1.14539564
v -35.19232941 38.26035309 0.92463899
v -38.97367859 34.3673439 -1.96395802
v -37.80595398 40.15432358 -5.88360929
v -40.3061676 35.72247696 -6.77606678
v -25.74982071 31.43102264 8.68591595
v -32.98491669 33.02796555 9.48896503
v -30.87337494 37.26006317 8.94980431
v -33.73504639 40.38048553 -1.63708341
v -20.52371979 36.60030365 1.84140146
v -24.56821632 37.20428848 7.17330599
v -28.73137474 35.52132034 14.76730633
v -26.95446777 40.60725403 2.74199486
v -17.51354599 36.73805237 -6.46285772
v -20.36391068 41.24899673 -6.15579462
v -25.56242371 43.06489563 -4.22354221
v -30.8302002 42.08720398 -1.98401487
v -38.40200043 23.31338501 2.67305613
v -42.45188904 20.38042259 0.59308517
v -47.84326172 17.65357399 -4.45359087
v -41.09086609 27.66309929 -1.75434089
v -45.63512421 22.8286953 -3.5374918
v -51.82866669 18.13063431 -4.82721376
v -50.07808685 14.272192 -4.67705154
v -44.22566986 28.45422745 -4.35733938
v -45.021595 24.71524429 -2.13588619
v -49.1648941 25.42315674 -6.04394865
v -52.42023087 22.68613625 -5.72359753
v -44.6195755 32.93756104 -4.48188972
v -47.16025543 30.5871582 -6.50869656
v -52.34748077 26.02046204 -7.06681156
v -45.24153137 8.03450203 -7.59334087
v -38.31082916 1.08786774 -7.84105587
v -17.6657238 6.32254696 -7.00454569
v -10.55038452 13.36577225 -7.24214029
v -29.16585159 44.28012848 -5.3304019
v -46.41867828 35.5281601 -6.08899403
v -50.07971954 28.57835388 -7.06424952
vn -0.40462 0.62267 0.66975
vn 0.72723 0.2712 0.63055
vn 0.19472 0.64034 0.743
vn 0.45423 -0.66255 0.59557
vn 0.81868 -0.2129 0.53333
vn 0.74039 -0.42177 0.52338
vn 0.51603 -0.67294 0.52996
vn 0.47071 -0.59622 0.65035
vn -0.57432 -0.57426 0.58341
vn -0.0132 -0.05427 0.99844
vn -0.18766 -0.83274 0.52089
vn -0.02259 -0.72155 0.69199
vn 0.60081 -0.51132 0.61448
vn -0.84888 0.07951 0.52257
vn -0.67943 -0.55282 0.48246
vn -0.55756 -0.71501 0.42178
vn -0.42621 -0.62906 0.6501
vn 0.0908 -0.53508 0.83991
vn -0.63879 -0.35867 0.68067
vn -0.82425 -0.16668 0.54113
vn -0.58437 -0.66339 0.46736
vn -0.4699 -0.6034 0.64429
vn -0.33916 -0.63803 0.69129
vn 0.68371 0.15025 0.71412
vn 0.54659 -0.10882 0.8303
vn 0.62195 -0.29766 0.72428
vn 0.5742 -0.08126 0.81468
vn 0.70185 -0.09193 0.70637
vn 0.71134 0.11869 0.69275
vn 0.71295 0.13814 0.68747
vn 0.65378 -0.10143 0.74986
vn 0.49926 0.11198 0.85918
vn 0.59672 0.12596 0.7925
vn 0.61244 0.06429 0.7879
vn 0.43987 -0.22284 0.86998
vn 0.41095 0.03166 0.91111
vn 0.60872 0.05233 0.79166
vn 0.72745 -0.0474 0.68452
vn 0.43848 -0.4332 0.78745
vn 0.37164 -0.30665 0.87627
vn 0.80861 0.16658 0.56427
vn -0.10413 -0.51282 0.85216
vn -0.5051 0.17792 0.84452
vn -0.70262 0.09822 0.70475
vn -0.69125 0.56709 0.44786
vn -0.68153 0.3928 0.61743
vn -0.75245 0.52317 0.40013
vn -0.56146 0.67271 0.4819
vn 0.57262 -0.46567 0.67473
vn -0.7106 -0.19246 0.67676
vn -0.42366 0.78466 0.45257
vn -0.41291 0.81236 0.4118
vn 0.83219 0.26305 0.48812
vn 0.62367 0.53047 0.57414
vn 0.01985 0.14428 0.98934
vn 0.11234 0.90057 0.41994
vn 0.80976 0.35219 0.46932
vn 0.65119 0.6693 0.35777
vn 0.24115 0.87484 0.42012
vn -0.17932 0.85204 0.49181
vn -0.51708 0.49816 0.69603
vn -0.72267 0.22888 0.6522
vn -0.35095 -0.11058 0.92984
vn -0.5635 0.28313 0.77608
vn -0.64057 -0.00989 0.76784
vn -0.18061 0.02041 0.98334
vn 0.06841 -0.11074 0.99149
vn -0.5706 0.23211 0.78774
vn -0.6123 0.20682 0.7631
vn -0.36327 0.31655 0.87626
vn -0.27889 0.28595 0.91676
vn -0.45836 0.29874 0.83706
vn -0.5201 0.11744 0.84599
vn -0.23854 0.30684 0.92138
vn -0.5143 -0.68097 0.52132
vn -0.52404 -0.40764 0.7478
vn 0.11697 -0.37007 0.92161
vn 0.42381 -0.12132 0.89759
vn 0.09554 0.81013 0.57841
vn -0.27524 0.36149 0.89083
vn -0.29693 0.21478 0.93043
vt 0.8875 0.54857
vt 0.78753 0.4483
vt 0.89301 0.41865
vt 0.68035 0.54378
vt 0.63406 0.43003
vt 0.18714 0.62033
vt 0.16728 0.57888
vt 0.18978 0.59391
vt 0.11905 0.5995
vt 0.12005 0.54952
vt 0.79037 0.64587
vt 0.8039 0.54949
vt 0.17234 0.63846
vt 0.10642 0.62893
vt 0.08522 0.58876
vt 0.20939 0.65942
vt 0.16532 0.70223
vt 0.19719 0.64364
vt 0.14418 0.672
vt 0.06262 0.64097
vt 0.04352 0.6151
vt 0.16927 0.73351
vt 0.19444 0.69989
vt 0.11645 0.69968
vt 0.10402 0.65748
vt 0.07506 0.66368
vt 0.23838 0.62178
vt 0.22804 0.57379
vt 0.24935 0.58303
vt 0.26431 0.56017
vt 0.23978 0.5371
vt 0.28007 0.53675
vt 0.27876 0.48096
vt 0.30356 0.48523
vt 0.2121 0.61653
vt 0.19512 0.55258
vt 0.22865 0.50272
vt 0.25288 0.49926
vt 0.24955 0.46027
vt 0.1889 0.51785
vt 0.21177 0.52373
vt 0.20635 0.48768
vt 0.23062 0.46294
vt 0.15771 0.53397
vt 0.15452 0.49327
vt 0.19204 0.46027
vt 0.27631 0.61126
vt 0.26713 0.64851
vt 0.29169 0.66286
vt 0.33796 0.64065
vt 0.32423 0.67859
vt 0.37423 0.67389
vt 0.35204 0.70224
vt 0.29011 0.5936
vt 0.68809 0.79343
vt 0.77211 0.67806
vt 0.78442 0.7804
vt 0.68204 0.62605
vt 0.78442 0.45387
vt 0.36068 0.63583
vt 0.31543 0.5596
vt 0.58898 0.71543
vt 0.68905 0.70266
vt 0.33613 0.5933
vt 0.31037 0.60929
vt 0.33434 0.51014
vt 0.36456 0.53297
vt 0.31138 0.58901
vt 0.37406 0.57169
vt 0.36716 0.61319
vt 0.2499 0.66846
vt 0.21672 0.63875
vt 0.2303 0.69464
vt 0.20824 0.74251
vt 0.2798 0.69601
vt 0.24502 0.72851
vt 0.21107 0.77026
vt 0.18524 0.75862
vt 0.28652 0.72251
vt 0.25759 0.71895
vt 0.26417 0.75693
vt 0.24268 0.77699
vt 0.31822 0.72411
vt 0.30114 0.74707
vt 0.26708 0.78018
vt 0.89301 0.68214
vt 0.65539 0.64994
vt 0.13868 0.73047
vt 0.08839 0.67996
vt 0.11746 0.51715
vt 0.16666 0.46679
vt 0.29757 0.61816
vt 0.48006 0.80228
vt 0.52349 0.61528
vt 0.39204 0.59405
vt 0.33585 0.74223
vt 0.28596 0.76632
usemtl mat0
f 1/1/1 2/2/2 3/3/3
f 2/2/2 4/4/4 5/5/5
f 4/6/4 6/7/6 5/8/5
f 7/9/7 8/10/8 6/7/6
f 1/1/1 9/11/9 10/12/10
f 9/11/9 4/4/4 10/12/10
f 11/13/11 7/9/7 4/6/4
f 12/14/12 13/15/13 7/9/7
f 14/16/14 15/17/15 9/18/9
f 15/17/15 11/13/11 9/18/9
f 16/19/16 12/14/12 11/13/11
f 12/14/12 17/20/17 18/21/18
f 19/22/19 15/17/15 20/23/20
f 15/17/15 21/24/21 16/19/16
f 21/24/21 22/25/22 16/19/16
f 22/25/22 23/26/23 17/20/17
f 3/27/3 24/28/24 25/29/25
f 24/28/24 26/30/26 25/29/25
f 27/31/27 28/32/28 26/30/26
f 28/32/28 29/33/29 30/34/30
f 5/8/5 24/28/24 2/35/2
f 31/36/31 27/31/27 24/28/24
f 27/31/27 32/37/32 33/38/33
f 33/38/33 34/39/34 29/33/29
f 6/7/6 31/36/31 5/8/5
f 31/36/31 35/40/35 36/41/36
f 36/41/36 37/42/37 32/37/32
f 32/37/32 38/43/38 34/39/34
f 8/10/8 39/44/39 6/7/6
f 39/44/39 40/45/40 35/40/35
f 40/45/40 37/42/37 35/40/35
f 37/42/37 41/46/41 38/43/38
f 3/27/3 42/47/42 43/48/43
f 42/47/42 44/49/44 43/48/43
f 44/49/44 45/50/45 46/51/46
f 46/51/46 47/52/47 48/53/48
f 25/29/25 49/54/49 42/47/42
f 49/55/49 50/56/50 42/57/42
f 50/56/50 51/58/51 45/59/45
f 45/50/45 52/60/52 47/52/47
f 26/30/26 53/61/53 49/54/49
f 49/55/49 54/62/54 55/63/55
f 54/62/54 51/58/51 55/63/55
f 56/64/56 52/60/52 51/65/51
f 28/32/28 57/66/57 53/61/53
f 53/61/53 58/67/58 54/68/54
f 58/67/58 56/64/56 54/68/54
f 59/69/59 60/70/60 56/64/56
f 3/27/3 61/71/61 1/72/1
f 61/71/61 14/16/14 1/72/1
f 62/73/62 20/23/20 14/16/14
f 63/74/63 19/22/19 20/23/20
f 44/49/44 61/71/61 43/48/43
f 64/75/64 62/73/62 61/71/61
f 62/73/62 65/76/65 63/74/63
f 63/74/63 66/77/66 67/78/67
f 46/51/46 64/75/64 44/49/44
f 64/75/64 68/79/68 69/80/69
f 69/80/69 70/81/70 65/76/65
f 65/76/65 71/82/71 66/77/66
f 48/53/48 72/83/72 46/51/46
f 72/83/72 73/84/73 68/79/68
f 73/84/73 70/81/70 68/79/68
f 70/81/70 74/85/74 71/82/71
f 1/1/1 10/12/10 2/2/2
f 2/2/2 10/12/10 4/4/4
f 4/6/4 7/9/7 6/7/6
f 7/9/7 13/15/13 8/10/8
f 1/1/1 14/86/14 9/11/9
f 9/11/9 11/87/11 4/4/4
f 11/13/11 12/14/12 7/9/7
f 12/14/12 18/21/18 13/15/13
f 14/16/14 20/23/20 15/17/15
f 15/17/15 16/19/16 11/13/11
f 16/19/16 22/25/22 12/14/12
f 12/14/12 22/25/22 17/20/17
f 19/22/19 75/88/75 15/17/15
f 15/17/15 75/88/75 21/24/21
f 21/24/21 76/89/76 22/25/22
f 22/25/22 76/89/76 23/26/23
f 3/27/3 2/35/2 24/28/24
f 24/28/24 27/31/27 26/30/26
f 27/31/27 33/38/33 28/32/28
f 28/32/28 33/38/33 29/33/29
f 5/8/5 31/36/31 24/28/24
f 31/36/31 36/41/36 27/31/27
f 27/31/27 36/41/36 32/37/32
f 33/38/33 32/37/32 34/39/34
f 6/7/6 39/44/39 31/36/31
f 31/36/31 39/44/39 35/40/35
f 36/41/36 35/40/35 37/42/37
f 32/37/32 37/42/37 38/43/38
f 8/10/8 77/90/77 39/44/39
f 39/44/39 77/90/77 40/45/40
f 40/45/40 78/91/78 37/42/37
f 37/42/37 78/91/78 41/46/41
f 3/27/3 25/29/25 42/47/42
f 42/47/42 50/92/50 44/49/44
f 44/49/44 50/92/50 45/50/45
f 46/51/46 45/50/45 47/52/47
f 25/29/25 26/30/26 49/54/49
f 49/55/49 55/63/55 50/56/50
f 50/56/50 55/63/55 51/58/51
f 45/50/45 51/65/51 52/60/52
f 26/30/26 28/32/28 53/61/53
f 49/55/49 53/93/53 54/62/54
f 54/62/54 56/94/56 51/58/51
f 56/64/56 60/70/60 52/60/52
f 28/32/28 30/34/30 57/66/57
f 53/61/53 57/66/57 58/67/58
f 58/67/58 59/69/59 56/64/56
f 59/69/59 79/95/79 60/70/60
f 3/27/3 43/48/43 61/71/61
f 61/71/61 62/73/62 14/16/14
f 62/73/62 63/74/63 20/23/20
f 63/74/63 67/78/67 19/22/19
f 44/49/44 64/75/64 61/71/61
f 64/75/64 69/80/69 62/73/62
f 62/73/62 69/80/69 65/76/65
f 63/74/63 65/76/65 66/77/66
f 46/51/46 72/83/72 64/75/64
f 64/75/64 72/83/72 68/79/68
f 69/80/69 68/79/68 70/81/70
f 65/76/65 70/81/70 71/82/71
f 48/53/48 80/96/80 72/83/72
f 72/83/72 80/96/80 73/84/73
f 73/84/73 81/97/81 70/81/70
f 70/81/70 81/97/81 74/85/74